<svg xmlns="http://www.w3.org/2000/svg" xmlns:xlink="http://www.w3.org/1999/xlink" width="500" zoomAndPan="magnify" viewBox="0 0 375 374.999991" height="500" preserveAspectRatio="xMidYMid meet" version="1.0"><defs><clipPath id="12381d7cfd"><path d="M 96 126.636719 L 278.976562 126.636719 L 278.976562 188 L 96 188 Z M 96 126.636719 " clip-rule="nonzero"/></clipPath><clipPath id="5286d096b5"><path d="M 96 187 L 278.976562 187 L 278.976562 248.136719 L 96 248.136719 Z M 96 187 " clip-rule="nonzero"/></clipPath><clipPath id="ab8b7c6cf4"><path d="M 96 126.636719 L 278.976562 126.636719 L 278.976562 188 L 96 188 Z M 96 126.636719 " clip-rule="nonzero"/></clipPath><clipPath id="db9e9744e0"><path d="M 96 187 L 278.976562 187 L 278.976562 248.136719 L 96 248.136719 Z M 96 187 " clip-rule="nonzero"/></clipPath></defs><g clip-path="url(#12381d7cfd)"><path fill="#ff0000" d="M 278.902344 187.386719 L 96.050781 187.386719 L 96.050781 126.636719 L 278.902344 126.636719 L 278.902344 187.386719 " fill-opacity="1" fill-rule="evenodd"/></g><g clip-path="url(#5286d096b5)"><path fill="#ffffff" d="M 96.050781 187.386719 L 278.902344 187.386719 L 278.902344 248.136719 L 96.050781 248.136719 L 96.050781 187.386719 " fill-opacity="1" fill-rule="evenodd"/></g><g clip-path="url(#ab8b7c6cf4)"><path fill="#ff0000" d="M 278.902344 187.386719 L 96.050781 187.386719 L 96.050781 126.636719 L 278.902344 126.636719 L 278.902344 187.386719 " fill-opacity="1" fill-rule="evenodd"/></g><g clip-path="url(#db9e9744e0)"><path fill="#ffffff" d="M 96.050781 187.386719 L 278.902344 187.386719 L 278.902344 248.136719 L 96.050781 248.136719 L 96.050781 187.386719 " fill-opacity="1" fill-rule="evenodd"/></g></svg>