<svg xmlns="http://www.w3.org/2000/svg" xmlns:xlink="http://www.w3.org/1999/xlink" width="500" zoomAndPan="magnify" viewBox="0 0 375 374.999991" height="500" preserveAspectRatio="xMidYMid meet" version="1.0"><defs><g/><clipPath id="6e832067d1"><path d="M 124.6875 134.324219 L 254.4375 134.324219 L 254.4375 247.574219 L 124.6875 247.574219 Z M 124.6875 134.324219 " clip-rule="nonzero"/></clipPath></defs><g fill="#403029" fill-opacity="1"><g transform="translate(55.684772, 264.591559)"><g><path d="M -5.453125 -9.5 L -3.140625 -5.484375 C -3.078125 -5.359375 -3.050781 -5.207031 -3.0625 -5.03125 C -3.070312 -4.863281 -3.125 -4.722656 -3.21875 -4.609375 L -9.15625 2.90625 C -9.25 3.019531 -9.375 3.144531 -9.53125 3.28125 C -9.6875 3.414062 -9.832031 3.519531 -9.96875 3.59375 L -15.234375 6.609375 C -15.359375 6.679688 -15.488281 6.703125 -15.625 6.671875 C -15.769531 6.640625 -15.878906 6.5625 -15.953125 6.4375 L -17.125 4.40625 C -17.195312 4.28125 -17.210938 4.140625 -17.171875 3.984375 C -17.128906 3.835938 -17.046875 3.726562 -16.921875 3.65625 L -12.21875 0.96875 C -12.09375 0.894531 -11.953125 0.789062 -11.796875 0.65625 C -11.640625 0.53125 -11.519531 0.40625 -11.4375 0.28125 L -6.984375 -5.328125 L -7.53125 -6.28125 L -14.625 -5.28125 C -14.78125 -5.269531 -14.953125 -5.226562 -15.140625 -5.15625 C -15.328125 -5.082031 -15.484375 -5.007812 -15.609375 -4.9375 L -20.3125 -2.25 C -20.4375 -2.175781 -20.570312 -2.15625 -20.71875 -2.1875 C -20.863281 -2.226562 -20.972656 -2.3125 -21.046875 -2.4375 L -22.21875 -4.46875 C -22.289062 -4.59375 -22.300781 -4.726562 -22.25 -4.875 C -22.207031 -5.019531 -22.125 -5.128906 -22 -5.203125 L -16.734375 -8.21875 C -16.597656 -8.289062 -16.4375 -8.363281 -16.25 -8.4375 C -16.0625 -8.519531 -15.890625 -8.5625 -15.734375 -8.5625 L -6.265625 -9.90625 C -6.109375 -9.925781 -5.953125 -9.894531 -5.796875 -9.8125 C -5.640625 -9.726562 -5.523438 -9.625 -5.453125 -9.5 Z M -5.453125 -9.5 "/></g></g></g><g fill="#403029" fill-opacity="1"><g transform="translate(44.358379, 243.869427)"><g><path d="M -19.859375 -4.09375 C -19.910156 -4.226562 -19.914062 -4.378906 -19.875 -4.546875 C -19.84375 -4.710938 -19.769531 -4.835938 -19.65625 -4.921875 L -12.65625 -11.484375 C -12.550781 -11.585938 -12.40625 -11.691406 -12.21875 -11.796875 C -12.039062 -11.910156 -11.882812 -11.992188 -11.75 -12.046875 L -6.109375 -14.234375 C -5.972656 -14.285156 -5.832031 -14.28125 -5.6875 -14.21875 C -5.539062 -14.15625 -5.441406 -14.054688 -5.390625 -13.921875 L -4.546875 -11.75 C -4.492188 -11.601562 -4.5 -11.457031 -4.5625 -11.3125 C -4.632812 -11.175781 -4.738281 -11.082031 -4.875 -11.03125 L -7.53125 -10 L -5.0625 -3.640625 L -2.40625 -4.671875 C -2.269531 -4.722656 -2.128906 -4.722656 -1.984375 -4.671875 C -1.847656 -4.617188 -1.753906 -4.523438 -1.703125 -4.390625 L -0.859375 -2.234375 C -0.804688 -2.085938 -0.8125 -1.941406 -0.875 -1.796875 C -0.945312 -1.660156 -1.050781 -1.566406 -1.1875 -1.515625 L -6.828125 0.671875 C -6.960938 0.722656 -7.132812 0.765625 -7.34375 0.796875 C -7.5625 0.835938 -7.738281 0.863281 -7.875 0.875 L -17.4375 0.765625 C -17.601562 0.753906 -17.753906 0.695312 -17.890625 0.59375 C -18.023438 0.5 -18.117188 0.382812 -18.171875 0.25 Z M -8.296875 -2.53125 L -10.671875 -8.640625 L -16.03125 -3.640625 L -15.640625 -2.625 Z M -8.296875 -2.53125 "/></g></g></g><g fill="#403029" fill-opacity="1"><g transform="translate(36.261685, 221.650903)"><g><path d="M -3.1875 -14.390625 L -0.671875 -3.03125 C -0.640625 -2.882812 -0.664062 -2.742188 -0.75 -2.609375 C -0.84375 -2.484375 -0.957031 -2.40625 -1.09375 -2.375 L -16.671875 1.078125 C -16.816406 1.109375 -16.953125 1.082031 -17.078125 1 C -17.203125 0.925781 -17.28125 0.816406 -17.3125 0.671875 L -17.8125 -1.59375 C -17.84375 -1.726562 -17.816406 -1.863281 -17.734375 -2 C -17.660156 -2.132812 -17.550781 -2.21875 -17.40625 -2.25 L -4.625 -5.09375 L -6.515625 -13.65625 C -6.546875 -13.789062 -6.519531 -13.914062 -6.4375 -14.03125 C -6.351562 -14.15625 -6.242188 -14.234375 -6.109375 -14.265625 L -3.84375 -14.765625 C -3.707031 -14.796875 -3.570312 -14.773438 -3.4375 -14.703125 C -3.300781 -14.628906 -3.21875 -14.523438 -3.1875 -14.390625 Z M -3.1875 -14.390625 "/></g></g></g><g fill="#403029" fill-opacity="1"><g transform="translate(31.595504, 198.461498)"><g><path d="M -15.15625 -14.21875 C -15.007812 -14.226562 -14.878906 -14.1875 -14.765625 -14.09375 C -14.660156 -14 -14.601562 -13.878906 -14.59375 -13.734375 L -13.984375 -4.546875 L -10.5625 -4.78125 L -11.125 -13.09375 C -11.132812 -13.238281 -11.09375 -13.367188 -11 -13.484375 C -10.90625 -13.597656 -10.785156 -13.660156 -10.640625 -13.671875 L -8.3125 -13.828125 C -8.15625 -13.835938 -8.019531 -13.789062 -7.90625 -13.6875 C -7.800781 -13.59375 -7.742188 -13.472656 -7.734375 -13.328125 L -7.171875 -5.015625 L -3.78125 -5.234375 L -4.390625 -14.421875 C -4.398438 -14.566406 -4.351562 -14.691406 -4.25 -14.796875 C -4.15625 -14.910156 -4.035156 -14.972656 -3.890625 -14.984375 L -1.578125 -15.140625 C -1.429688 -15.148438 -1.296875 -15.109375 -1.171875 -15.015625 C -1.054688 -14.921875 -0.992188 -14.800781 -0.984375 -14.65625 L -0.171875 -2.609375 C -0.160156 -2.460938 -0.207031 -2.335938 -0.3125 -2.234375 C -0.414062 -2.128906 -0.539062 -2.070312 -0.6875 -2.0625 L -16.609375 -0.984375 C -16.753906 -0.972656 -16.882812 -1.007812 -17 -1.09375 C -17.113281 -1.1875 -17.175781 -1.304688 -17.1875 -1.453125 L -18 -13.5 C -18.007812 -13.644531 -17.960938 -13.769531 -17.859375 -13.875 C -17.765625 -13.988281 -17.644531 -14.050781 -17.5 -14.0625 Z M -15.15625 -14.21875 "/></g></g></g><g fill="#403029" fill-opacity="1"><g transform="translate(30.484737, 174.868963)"><g><path d="M -15.4375 -13.375 C -15.582031 -13.382812 -15.703125 -13.445312 -15.796875 -13.5625 C -15.898438 -13.6875 -15.945312 -13.820312 -15.9375 -13.96875 L -15.734375 -16.3125 C -15.722656 -16.457031 -15.65625 -16.578125 -15.53125 -16.671875 C -15.414062 -16.773438 -15.285156 -16.820312 -15.140625 -16.8125 L 0.75 -15.484375 C 0.894531 -15.472656 1.015625 -15.40625 1.109375 -15.28125 C 1.210938 -15.164062 1.257812 -15.035156 1.25 -14.890625 L 1.046875 -12.546875 C 1.035156 -12.398438 0.96875 -12.273438 0.84375 -12.171875 C 0.726562 -12.078125 0.597656 -12.035156 0.453125 -12.046875 L -5.34375 -12.53125 L -11.984375 -6.265625 L -0.109375 -5.265625 C 0.0351562 -5.253906 0.15625 -5.191406 0.25 -5.078125 C 0.351562 -4.960938 0.398438 -4.832031 0.390625 -4.6875 L 0.203125 -2.375 C 0.191406 -2.226562 0.125 -2.109375 0 -2.015625 C -0.113281 -1.921875 -0.242188 -1.878906 -0.390625 -1.890625 L -16.28125 -3.21875 C -16.425781 -3.226562 -16.546875 -3.289062 -16.640625 -3.40625 C -16.742188 -3.519531 -16.789062 -3.648438 -16.78125 -3.796875 L -16.59375 -6.109375 C -16.582031 -6.253906 -16.53125 -6.414062 -16.4375 -6.59375 C -16.34375 -6.769531 -16.242188 -6.910156 -16.140625 -7.015625 L -9.90625 -12.90625 Z M -15.4375 -13.375 "/></g></g></g><g fill="#403029" fill-opacity="1"><g transform="translate(32.933236, 151.348227)"><g><path d="M -13.109375 -18.5 C -13.078125 -18.632812 -12.992188 -18.742188 -12.859375 -18.828125 C -12.734375 -18.910156 -12.597656 -18.929688 -12.453125 -18.890625 L -10.171875 -18.359375 C -10.035156 -18.316406 -9.929688 -18.226562 -9.859375 -18.09375 C -9.785156 -17.96875 -9.765625 -17.835938 -9.796875 -17.703125 L -10.859375 -13.25 L 1.875 -10.203125 C 2.019531 -10.171875 2.128906 -10.085938 2.203125 -9.953125 C 2.285156 -9.816406 2.3125 -9.679688 2.28125 -9.546875 L 1.734375 -7.28125 C 1.703125 -7.125 1.617188 -7.007812 1.484375 -6.9375 C 1.359375 -6.875 1.222656 -6.859375 1.078125 -6.890625 L -11.65625 -9.9375 L -12.703125 -5.5 C -12.742188 -5.34375 -12.828125 -5.222656 -12.953125 -5.140625 C -13.078125 -5.066406 -13.207031 -5.050781 -13.34375 -5.09375 L -15.625 -5.625 C -15.769531 -5.664062 -15.878906 -5.75 -15.953125 -5.875 C -16.035156 -6 -16.054688 -6.140625 -16.015625 -6.296875 Z M -13.109375 -18.5 "/></g></g></g><g fill="#403029" fill-opacity="1"><g transform="translate(38.894576, 128.464122)"><g><path d="M -7.40625 -19.375 C -7.269531 -19.320312 -7.175781 -19.222656 -7.125 -19.078125 C -7.082031 -18.929688 -7.085938 -18.789062 -7.140625 -18.65625 L -8.75 -14.71875 L 0.734375 -10.875 L 2.34375 -14.8125 C 2.394531 -14.945312 2.488281 -15.046875 2.625 -15.109375 C 2.769531 -15.171875 2.910156 -15.175781 3.046875 -15.125 L 5.203125 -14.25 C 5.335938 -14.195312 5.429688 -14.097656 5.484375 -13.953125 C 5.546875 -13.804688 5.550781 -13.664062 5.5 -13.53125 L 1.03125 -2.53125 C 0.976562 -2.394531 0.878906 -2.296875 0.734375 -2.234375 C 0.597656 -2.179688 0.460938 -2.179688 0.328125 -2.234375 L -1.828125 -3.109375 C -1.960938 -3.160156 -2.054688 -3.253906 -2.109375 -3.390625 C -2.171875 -3.535156 -2.175781 -3.675781 -2.125 -3.8125 L -0.546875 -7.71875 L -10.03125 -11.5625 L -11.609375 -7.65625 C -11.660156 -7.519531 -11.75 -7.421875 -11.875 -7.359375 C -12.007812 -7.304688 -12.144531 -7.304688 -12.28125 -7.359375 L -14.453125 -8.234375 C -14.585938 -8.296875 -14.6875 -8.394531 -14.75 -8.53125 C -14.8125 -8.664062 -14.816406 -8.800781 -14.765625 -8.9375 L -10.296875 -19.9375 C -10.242188 -20.070312 -10.144531 -20.171875 -10 -20.234375 C -9.851562 -20.304688 -9.710938 -20.3125 -9.578125 -20.25 Z M -7.40625 -19.375 "/></g></g></g><g fill="#403029" fill-opacity="1"><g transform="translate(48.232875, 106.738186)"><g><path d="M -8.015625 -18.796875 C -8.140625 -18.867188 -8.222656 -18.976562 -8.265625 -19.125 C -8.304688 -19.28125 -8.289062 -19.421875 -8.21875 -19.546875 L -7.015625 -21.5625 C -6.941406 -21.6875 -6.828125 -21.765625 -6.671875 -21.796875 C -6.515625 -21.835938 -6.375 -21.820312 -6.25 -21.75 L 7.453125 -13.59375 C 7.578125 -13.519531 7.65625 -13.40625 7.6875 -13.25 C 7.726562 -13.101562 7.710938 -12.96875 7.640625 -12.84375 L 6.4375 -10.828125 C 6.363281 -10.703125 6.25 -10.617188 6.09375 -10.578125 C 5.945312 -10.546875 5.8125 -10.566406 5.6875 -10.640625 L 0.6875 -13.609375 L -8.046875 -10.875 L 2.203125 -4.78125 C 2.328125 -4.707031 2.410156 -4.597656 2.453125 -4.453125 C 2.492188 -4.304688 2.476562 -4.171875 2.40625 -4.046875 L 1.21875 -2.046875 C 1.144531 -1.921875 1.03125 -1.835938 0.875 -1.796875 C 0.726562 -1.765625 0.59375 -1.785156 0.46875 -1.859375 L -13.234375 -10.015625 C -13.359375 -10.085938 -13.441406 -10.195312 -13.484375 -10.34375 C -13.523438 -10.5 -13.507812 -10.640625 -13.4375 -10.765625 L -12.25 -12.765625 C -12.175781 -12.890625 -12.054688 -13.007812 -11.890625 -13.125 C -11.734375 -13.238281 -11.582031 -13.320312 -11.4375 -13.375 L -3.25 -15.953125 Z M -8.015625 -18.796875 "/></g></g></g><g fill="#403029" fill-opacity="1"><g transform="translate(60.735311, 86.665587)"><g><path d="M 3.9375 -4.796875 C 3.5625 -4.335938 3.113281 -3.976562 2.59375 -3.71875 C 2.070312 -3.457031 1.535156 -3.296875 0.984375 -3.234375 C 0.429688 -3.179688 -0.117188 -3.234375 -0.671875 -3.390625 C -1.234375 -3.554688 -1.75 -3.828125 -2.21875 -4.203125 L -11.578125 -11.90625 C -11.691406 -11.988281 -11.753906 -12.109375 -11.765625 -12.265625 C -11.785156 -12.421875 -11.75 -12.554688 -11.65625 -12.671875 L -10.1875 -14.46875 C -10.09375 -14.570312 -9.96875 -14.628906 -9.8125 -14.640625 C -9.664062 -14.648438 -9.535156 -14.613281 -9.421875 -14.53125 L -0.0625 -6.828125 C 0.15625 -6.648438 0.394531 -6.570312 0.65625 -6.59375 C 0.925781 -6.625 1.144531 -6.742188 1.3125 -6.953125 L 4.40625 -10.71875 C 4.582031 -10.9375 4.65625 -11.175781 4.625 -11.4375 C 4.601562 -11.695312 4.484375 -11.914062 4.265625 -12.09375 L -5.09375 -19.796875 C -5.207031 -19.878906 -5.269531 -20 -5.28125 -20.15625 C -5.300781 -20.3125 -5.265625 -20.445312 -5.171875 -20.5625 L -3.6875 -22.375 C -3.59375 -22.476562 -3.46875 -22.535156 -3.3125 -22.546875 C -3.164062 -22.566406 -3.035156 -22.535156 -2.921875 -22.453125 L 6.4375 -14.75 C 6.90625 -14.375 7.269531 -13.925781 7.53125 -13.40625 C 7.800781 -12.882812 7.957031 -12.34375 8 -11.78125 C 8.050781 -11.226562 7.992188 -10.664062 7.828125 -10.09375 C 7.671875 -9.53125 7.40625 -9.019531 7.03125 -8.5625 Z M 3.9375 -4.796875 "/></g></g></g><g fill="#403029" fill-opacity="1"><g transform="translate(76.116934, 68.703801)"><g><path d="M 1.40625 -17.296875 C 1.289062 -17.191406 1.15625 -17.140625 1 -17.140625 C 0.851562 -17.148438 0.734375 -17.210938 0.640625 -17.328125 L 0.515625 -17.453125 C 0.328125 -17.660156 0.101562 -17.773438 -0.15625 -17.796875 C -0.414062 -17.828125 -0.648438 -17.75 -0.859375 -17.5625 L -4.5 -14.296875 C -4.6875 -14.128906 -4.789062 -13.90625 -4.8125 -13.625 C -4.832031 -13.351562 -4.75 -13.113281 -4.5625 -12.90625 L -3.59375 -11.828125 C -3.40625 -11.617188 -3.171875 -11.507812 -2.890625 -11.5 C -2.617188 -11.488281 -2.390625 -11.566406 -2.203125 -11.734375 L 1.4375 -15 C 1.875 -15.394531 2.363281 -15.679688 2.90625 -15.859375 C 3.457031 -16.046875 4.007812 -16.125 4.5625 -16.09375 C 5.125 -16.070312 5.671875 -15.941406 6.203125 -15.703125 C 6.734375 -15.460938 7.195312 -15.117188 7.59375 -14.671875 L 8.5625 -13.59375 C 8.96875 -13.144531 9.257812 -12.644531 9.4375 -12.09375 C 9.613281 -11.539062 9.6875 -10.984375 9.65625 -10.421875 C 9.632812 -9.859375 9.503906 -9.3125 9.265625 -8.78125 C 9.023438 -8.257812 8.6875 -7.800781 8.25 -7.40625 L 4.609375 -4.140625 C 4.171875 -3.742188 3.675781 -3.453125 3.125 -3.265625 C 2.570312 -3.085938 2.015625 -3.015625 1.453125 -3.046875 C 0.898438 -3.078125 0.363281 -3.210938 -0.15625 -3.453125 C -0.6875 -3.703125 -1.15625 -4.050781 -1.5625 -4.5 L -1.6875 -4.640625 C -1.78125 -4.742188 -1.820312 -4.867188 -1.8125 -5.015625 C -1.8125 -5.171875 -1.753906 -5.300781 -1.640625 -5.40625 L 0.078125 -6.953125 C 0.179688 -7.046875 0.304688 -7.085938 0.453125 -7.078125 C 0.609375 -7.066406 0.734375 -7.007812 0.828125 -6.90625 L 0.953125 -6.765625 C 1.140625 -6.554688 1.367188 -6.445312 1.640625 -6.4375 C 1.910156 -6.425781 2.140625 -6.503906 2.328125 -6.671875 L 5.96875 -9.9375 C 6.175781 -10.125 6.285156 -10.347656 6.296875 -10.609375 C 6.304688 -10.867188 6.21875 -11.101562 6.03125 -11.3125 L 5.0625 -12.390625 C 4.875 -12.597656 4.648438 -12.707031 4.390625 -12.71875 C 4.140625 -12.738281 3.910156 -12.65625 3.703125 -12.46875 L 0.0625 -9.203125 C -0.375 -8.804688 -0.867188 -8.515625 -1.421875 -8.328125 C -1.972656 -8.148438 -2.523438 -8.078125 -3.078125 -8.109375 C -3.628906 -8.140625 -4.171875 -8.28125 -4.703125 -8.53125 C -5.242188 -8.78125 -5.710938 -9.125 -6.109375 -9.5625 L -7.078125 -10.640625 C -7.484375 -11.097656 -7.773438 -11.597656 -7.953125 -12.140625 C -8.140625 -12.691406 -8.21875 -13.242188 -8.1875 -13.796875 C -8.164062 -14.359375 -8.035156 -14.90625 -7.796875 -15.4375 C -7.554688 -15.96875 -7.21875 -16.429688 -6.78125 -16.828125 L -3.140625 -20.09375 C -2.703125 -20.488281 -2.207031 -20.773438 -1.65625 -20.953125 C -1.101562 -21.128906 -0.550781 -21.203125 0 -21.171875 C 0.5625 -21.148438 1.109375 -21.019531 1.640625 -20.78125 C 2.171875 -20.539062 2.640625 -20.191406 3.046875 -19.734375 L 3.171875 -19.609375 C 3.265625 -19.492188 3.3125 -19.363281 3.3125 -19.21875 C 3.3125 -19.070312 3.253906 -18.953125 3.140625 -18.859375 Z M 1.40625 -17.296875 "/></g></g></g><g fill="#403029" fill-opacity="1"><g transform="translate(94.027307, 53.261018)"><g/></g></g><g fill="#403029" fill-opacity="1"><g transform="translate(114.036865, 40.703785)"><g><path d="M 6.484375 -21.71875 C 6.617188 -21.78125 6.753906 -21.785156 6.890625 -21.734375 C 7.035156 -21.679688 7.140625 -21.585938 7.203125 -21.453125 L 8.1875 -19.328125 C 8.238281 -19.191406 8.234375 -19.054688 8.171875 -18.921875 C 8.117188 -18.785156 8.023438 -18.6875 7.890625 -18.625 L 3.734375 -16.71875 L 9.1875 -4.8125 C 9.25 -4.675781 9.253906 -4.535156 9.203125 -4.390625 C 9.148438 -4.242188 9.054688 -4.144531 8.921875 -4.09375 L 6.796875 -3.125 C 6.660156 -3.050781 6.523438 -3.039062 6.390625 -3.09375 C 6.253906 -3.15625 6.15625 -3.253906 6.09375 -3.390625 L 0.640625 -15.296875 L -3.515625 -13.40625 C -3.660156 -13.332031 -3.800781 -13.316406 -3.9375 -13.359375 C -4.070312 -13.410156 -4.164062 -13.503906 -4.21875 -13.640625 L -5.203125 -15.765625 C -5.265625 -15.898438 -5.269531 -16.035156 -5.21875 -16.171875 C -5.164062 -16.316406 -5.066406 -16.425781 -4.921875 -16.5 Z M 6.484375 -21.71875 "/></g></g></g><g fill="#403029" fill-opacity="1"><g transform="translate(135.730912, 31.29058)"><g><path d="M 7.046875 -19.171875 C 7.003906 -19.316406 7.019531 -19.457031 7.09375 -19.59375 C 7.164062 -19.726562 7.273438 -19.816406 7.421875 -19.859375 L 9.671875 -20.5 C 9.816406 -20.539062 9.953125 -20.519531 10.078125 -20.4375 C 10.203125 -20.363281 10.285156 -20.253906 10.328125 -20.109375 L 14.703125 -4.78125 C 14.742188 -4.632812 14.734375 -4.492188 14.671875 -4.359375 C 14.609375 -4.234375 14.503906 -4.148438 14.359375 -4.109375 L 12.109375 -3.46875 C 11.960938 -3.425781 11.820312 -3.441406 11.6875 -3.515625 C 11.550781 -3.585938 11.460938 -3.695312 11.421875 -3.84375 L 9.703125 -9.859375 L 3.15625 -7.984375 L 4.875 -1.96875 C 4.914062 -1.820312 4.898438 -1.679688 4.828125 -1.546875 C 4.765625 -1.421875 4.660156 -1.335938 4.515625 -1.296875 L 2.265625 -0.65625 C 2.128906 -0.613281 1.992188 -0.628906 1.859375 -0.703125 C 1.734375 -0.773438 1.648438 -0.882812 1.609375 -1.03125 L -2.765625 -16.359375 C -2.804688 -16.503906 -2.789062 -16.644531 -2.71875 -16.78125 C -2.65625 -16.914062 -2.554688 -17.003906 -2.421875 -17.046875 L -0.171875 -17.6875 C -0.0234375 -17.726562 0.109375 -17.707031 0.234375 -17.625 C 0.367188 -17.550781 0.457031 -17.441406 0.5 -17.296875 L 2.21875 -11.25 L 8.765625 -13.125 Z M 7.046875 -19.171875 "/></g></g></g><g fill="#403029" fill-opacity="1"><g transform="translate(158.570836, 25.25475)"><g><path d="M 13.28125 -15.984375 C 13.289062 -15.835938 13.253906 -15.707031 13.171875 -15.59375 C 13.085938 -15.476562 12.972656 -15.414062 12.828125 -15.40625 L 3.703125 -14.234375 L 4.140625 -10.828125 L 12.40625 -11.890625 C 12.550781 -11.898438 12.679688 -11.863281 12.796875 -11.78125 C 12.921875 -11.695312 12.992188 -11.582031 13.015625 -11.4375 L 13.3125 -9.125 C 13.332031 -8.96875 13.289062 -8.828125 13.1875 -8.703125 C 13.09375 -8.585938 12.972656 -8.523438 12.828125 -8.515625 L 4.5625 -7.453125 L 5 -4.078125 L 14.125 -5.25 C 14.269531 -5.257812 14.398438 -5.21875 14.515625 -5.125 C 14.628906 -5.03125 14.695312 -4.914062 14.71875 -4.78125 L 15.015625 -2.484375 C 15.023438 -2.335938 14.988281 -2.203125 14.90625 -2.078125 C 14.820312 -1.953125 14.707031 -1.882812 14.5625 -1.875 L 2.59375 -0.328125 C 2.445312 -0.304688 2.316406 -0.34375 2.203125 -0.4375 C 2.085938 -0.539062 2.023438 -0.664062 2.015625 -0.8125 L -0.015625 -16.625 C -0.0351562 -16.769531 -0.00390625 -16.898438 0.078125 -17.015625 C 0.160156 -17.140625 0.273438 -17.210938 0.421875 -17.234375 L 12.390625 -18.78125 C 12.535156 -18.789062 12.664062 -18.75 12.78125 -18.65625 C 12.894531 -18.5625 12.960938 -18.441406 12.984375 -18.296875 Z M 13.28125 -15.984375 "/></g></g></g><g fill="#403029" fill-opacity="1"><g transform="translate(182.057731, 22.719121)"><g><path d="M 11.46875 -16.75 C 12.082031 -16.738281 12.648438 -16.613281 13.171875 -16.375 C 13.703125 -16.132812 14.160156 -15.804688 14.546875 -15.390625 C 14.941406 -14.984375 15.25 -14.515625 15.46875 -13.984375 C 15.6875 -13.453125 15.789062 -12.882812 15.78125 -12.28125 L 15.59375 -4.015625 C 15.570312 -3.421875 15.4375 -2.859375 15.1875 -2.328125 C 14.945312 -1.804688 14.625 -1.351562 14.21875 -0.96875 C 13.8125 -0.582031 13.335938 -0.273438 12.796875 -0.046875 C 12.265625 0.171875 11.691406 0.273438 11.078125 0.265625 L 6.234375 0.140625 C 5.617188 0.128906 5.046875 0.00390625 4.515625 -0.234375 C 3.992188 -0.484375 3.539062 -0.8125 3.15625 -1.21875 C 2.769531 -1.625 2.46875 -2.09375 2.25 -2.625 C 2.03125 -3.164062 1.929688 -3.734375 1.953125 -4.328125 L 2.140625 -12.59375 C 2.148438 -13.195312 2.273438 -13.757812 2.515625 -14.28125 C 2.765625 -14.800781 3.085938 -15.253906 3.484375 -15.640625 C 3.890625 -16.035156 4.359375 -16.34375 4.890625 -16.5625 C 5.429688 -16.78125 6.007812 -16.882812 6.625 -16.875 Z M 12.375 -12.359375 C 12.382812 -12.640625 12.289062 -12.875 12.09375 -13.0625 C 11.90625 -13.25 11.671875 -13.34375 11.390625 -13.34375 L 6.546875 -13.46875 C 6.265625 -13.46875 6.023438 -13.378906 5.828125 -13.203125 C 5.640625 -13.023438 5.539062 -12.796875 5.53125 -12.515625 L 5.34375 -4.25 C 5.332031 -3.96875 5.421875 -3.734375 5.609375 -3.546875 C 5.796875 -3.359375 6.03125 -3.265625 6.3125 -3.265625 L 11.15625 -3.140625 C 11.4375 -3.140625 11.675781 -3.226562 11.875 -3.40625 C 12.070312 -3.582031 12.175781 -3.8125 12.1875 -4.09375 Z M 12.375 -12.359375 "/></g></g></g><g fill="#403029" fill-opacity="1"><g transform="translate(205.683888, 23.753919)"><g/></g></g><g fill="#403029" fill-opacity="1"><g transform="translate(228.861242, 28.318321)"><g><path d="M 15.953125 -12.609375 C 16.535156 -12.410156 17.035156 -12.113281 17.453125 -11.71875 C 17.878906 -11.332031 18.21875 -10.890625 18.46875 -10.390625 C 18.71875 -9.890625 18.867188 -9.347656 18.921875 -8.765625 C 18.984375 -8.179688 18.914062 -7.601562 18.71875 -7.03125 L 18.25 -5.65625 C 18.0625 -5.09375 17.769531 -4.59375 17.375 -4.15625 C 16.976562 -3.726562 16.523438 -3.390625 16.015625 -3.140625 C 15.515625 -2.890625 14.976562 -2.738281 14.40625 -2.6875 C 13.832031 -2.632812 13.253906 -2.707031 12.671875 -2.90625 L 7.125 -4.78125 L 5.125 1.15625 C 5.082031 1.289062 4.992188 1.394531 4.859375 1.46875 C 4.734375 1.539062 4.601562 1.554688 4.46875 1.515625 L 2.265625 0.765625 C 2.117188 0.710938 2.015625 0.617188 1.953125 0.484375 C 1.890625 0.347656 1.878906 0.210938 1.921875 0.078125 L 7.03125 -15.046875 C 7.070312 -15.179688 7.160156 -15.285156 7.296875 -15.359375 C 7.429688 -15.429688 7.570312 -15.441406 7.71875 -15.390625 Z M 15.484375 -8.125 C 15.566406 -8.382812 15.546875 -8.632812 15.421875 -8.875 C 15.304688 -9.125 15.117188 -9.289062 14.859375 -9.375 L 9.3125 -11.25 L 8.21875 -8 L 13.765625 -6.125 C 14.023438 -6.039062 14.273438 -6.054688 14.515625 -6.171875 C 14.765625 -6.296875 14.929688 -6.488281 15.015625 -6.75 Z M 15.484375 -8.125 "/></g></g></g><g fill="#403029" fill-opacity="1"><g transform="translate(251.110405, 36.330561)"><g><path d="M 13.765625 6.546875 C 13.765625 6.691406 13.707031 6.789062 13.59375 6.84375 C 13.488281 6.90625 13.375 6.90625 13.25 6.84375 L 10.890625 5.625 C 10.753906 5.550781 10.644531 5.4375 10.5625 5.28125 C 10.488281 5.132812 10.453125 4.988281 10.453125 4.84375 L 10.796875 -2.078125 L 7.796875 -3.625 L 4.921875 1.9375 C 4.859375 2.0625 4.753906 2.144531 4.609375 2.1875 C 4.460938 2.238281 4.320312 2.234375 4.1875 2.171875 L 2.125 1.09375 C 1.988281 1.019531 1.898438 0.910156 1.859375 0.765625 C 1.816406 0.617188 1.828125 0.484375 1.890625 0.359375 L 9.203125 -13.8125 C 9.273438 -13.945312 9.378906 -14.035156 9.515625 -14.078125 C 9.660156 -14.128906 9.800781 -14.117188 9.9375 -14.046875 L 17.65625 -10.0625 C 18.195312 -9.78125 18.648438 -9.410156 19.015625 -8.953125 C 19.390625 -8.503906 19.660156 -8.015625 19.828125 -7.484375 C 20.003906 -6.953125 20.070312 -6.394531 20.03125 -5.8125 C 20 -5.226562 19.84375 -4.664062 19.5625 -4.125 L 18.90625 -2.84375 C 18.675781 -2.394531 18.382812 -2.007812 18.03125 -1.6875 C 17.675781 -1.363281 17.285156 -1.097656 16.859375 -0.890625 C 16.441406 -0.679688 16 -0.550781 15.53125 -0.5 C 15.070312 -0.445312 14.601562 -0.46875 14.125 -0.5625 Z M 14.53125 -3.984375 C 14.78125 -3.847656 15.035156 -3.820312 15.296875 -3.90625 C 15.554688 -3.988281 15.75 -4.15625 15.875 -4.40625 L 16.53125 -5.6875 C 16.65625 -5.9375 16.675781 -6.191406 16.59375 -6.453125 C 16.507812 -6.710938 16.34375 -6.910156 16.09375 -7.046875 L 10.921875 -9.703125 L 9.359375 -6.640625 Z M 14.53125 -3.984375 "/></g></g></g><g fill="#403029" fill-opacity="1"><g transform="translate(271.899849, 47.600808)"><g><path d="M 18.90625 -7.34375 C 19.019531 -7.257812 19.101562 -7.132812 19.15625 -6.96875 C 19.21875 -6.8125 19.226562 -6.660156 19.1875 -6.515625 L 16.875 2.765625 C 16.832031 2.910156 16.765625 3.078125 16.671875 3.265625 C 16.585938 3.460938 16.5 3.625 16.40625 3.75 L 12.859375 8.65625 C 12.765625 8.769531 12.640625 8.835938 12.484375 8.859375 C 12.335938 8.890625 12.207031 8.859375 12.09375 8.765625 L 10.1875 7.390625 C 10.070312 7.304688 10 7.1875 9.96875 7.03125 C 9.945312 6.882812 9.984375 6.753906 10.078125 6.640625 L 11.75 4.328125 L 6.234375 0.328125 L 4.5625 2.640625 C 4.46875 2.753906 4.347656 2.820312 4.203125 2.84375 C 4.054688 2.875 3.925781 2.847656 3.8125 2.765625 L 1.9375 1.40625 C 1.8125 1.3125 1.738281 1.1875 1.71875 1.03125 C 1.695312 0.882812 1.734375 0.753906 1.828125 0.640625 L 5.375 -4.265625 C 5.46875 -4.390625 5.585938 -4.519531 5.734375 -4.65625 C 5.890625 -4.800781 6.023438 -4.921875 6.140625 -5.015625 L 14.25 -10.109375 C 14.382812 -10.179688 14.535156 -10.210938 14.703125 -10.203125 C 14.867188 -10.203125 15.015625 -10.160156 15.140625 -10.078125 Z M 8.34375 -2.375 L 13.65625 1.484375 L 15.453125 -5.65625 L 14.5625 -6.296875 Z M 8.34375 -2.375 "/></g></g></g><g fill="#403029" fill-opacity="1"><g transform="translate(290.755838, 61.872197)"><g><path d="M 22.59375 -1.640625 C 22.695312 -1.546875 22.75 -1.421875 22.75 -1.265625 C 22.757812 -1.109375 22.710938 -0.976562 22.609375 -0.875 L 20.953125 0.796875 C 20.859375 0.898438 20.734375 0.945312 20.578125 0.9375 C 20.429688 0.9375 20.304688 0.890625 20.203125 0.796875 L 16.953125 -2.421875 L 7.765625 6.890625 C 7.660156 6.992188 7.53125 7.046875 7.375 7.046875 C 7.21875 7.046875 7.085938 6.992188 6.984375 6.890625 L 5.328125 5.25 C 5.210938 5.144531 5.160156 5.019531 5.171875 4.875 C 5.179688 4.726562 5.238281 4.601562 5.34375 4.5 L 14.53125 -4.8125 L 11.28125 -8.03125 C 11.164062 -8.132812 11.109375 -8.257812 11.109375 -8.40625 C 11.109375 -8.550781 11.15625 -8.675781 11.25 -8.78125 L 12.90625 -10.453125 C 13.007812 -10.554688 13.132812 -10.609375 13.28125 -10.609375 C 13.425781 -10.617188 13.554688 -10.570312 13.671875 -10.46875 Z M 22.59375 -1.640625 "/></g></g></g><g fill="#403029" fill-opacity="1"><g transform="translate(307.245968, 78.828393)"><g><path d="M 20.421875 -0.203125 C 20.546875 -0.296875 20.679688 -0.328125 20.828125 -0.296875 C 20.984375 -0.273438 21.101562 -0.207031 21.1875 -0.09375 L 22.59375 1.78125 C 22.675781 1.894531 22.703125 2.023438 22.671875 2.171875 C 22.648438 2.316406 22.578125 2.4375 22.453125 2.53125 L 9.671875 12.0625 C 9.554688 12.144531 9.425781 12.175781 9.28125 12.15625 C 9.132812 12.144531 9.019531 12.082031 8.9375 11.96875 L 7.53125 10.09375 C 7.445312 9.976562 7.414062 9.84375 7.4375 9.6875 C 7.457031 9.53125 7.523438 9.410156 7.640625 9.328125 L 12.65625 5.578125 L 8.578125 0.125 L 3.5625 3.875 C 3.445312 3.957031 3.3125 3.988281 3.15625 3.96875 C 3.007812 3.945312 2.894531 3.878906 2.8125 3.765625 L 1.40625 1.890625 C 1.320312 1.773438 1.296875 1.644531 1.328125 1.5 C 1.359375 1.351562 1.429688 1.238281 1.546875 1.15625 L 14.328125 -8.375 C 14.453125 -8.46875 14.582031 -8.503906 14.71875 -8.484375 C 14.863281 -8.472656 14.976562 -8.410156 15.0625 -8.296875 L 16.46875 -6.421875 C 16.550781 -6.304688 16.582031 -6.171875 16.5625 -6.015625 C 16.539062 -5.867188 16.46875 -5.75 16.34375 -5.65625 L 11.296875 -1.890625 L 15.375 3.5625 Z M 20.421875 -0.203125 "/></g></g></g><g fill="#403029" fill-opacity="1"><g transform="translate(320.989847, 98.036091)"><g><path d="M 20.21875 1.671875 C 20.28125 1.804688 20.300781 1.957031 20.28125 2.125 C 20.257812 2.289062 20.195312 2.429688 20.09375 2.546875 L 13.9375 9.875 C 13.851562 9.988281 13.726562 10.109375 13.5625 10.234375 C 13.394531 10.367188 13.242188 10.472656 13.109375 10.546875 L 7.765625 13.40625 C 7.640625 13.46875 7.5 13.476562 7.34375 13.4375 C 7.195312 13.394531 7.09375 13.3125 7.03125 13.1875 L 5.921875 11.109375 C 5.859375 10.984375 5.847656 10.84375 5.890625 10.6875 C 5.941406 10.539062 6.03125 10.4375 6.15625 10.375 L 8.671875 9.015625 L 5.46875 3.015625 L 2.953125 4.375 C 2.828125 4.4375 2.6875 4.445312 2.53125 4.40625 C 2.382812 4.363281 2.28125 4.28125 2.21875 4.15625 L 1.125 2.109375 C 1.050781 1.972656 1.039062 1.832031 1.09375 1.6875 C 1.144531 1.539062 1.234375 1.4375 1.359375 1.375 L 6.703125 -1.484375 C 6.835938 -1.554688 7.003906 -1.617188 7.203125 -1.671875 C 7.398438 -1.734375 7.566406 -1.78125 7.703125 -1.8125 L 17.21875 -2.84375 C 17.375 -2.851562 17.53125 -2.816406 17.6875 -2.734375 C 17.84375 -2.660156 17.957031 -2.5625 18.03125 -2.4375 Z M 8.53125 1.53125 L 11.625 7.3125 L 16.359375 1.6875 L 15.84375 0.71875 Z M 8.53125 1.53125 "/></g></g></g><g fill="#403029" fill-opacity="1"><g transform="translate(331.694024, 119.122577)"><g><path d="M 21.046875 8.421875 C 21.085938 8.554688 21.082031 8.695312 21.03125 8.84375 C 20.945312 8.976562 20.835938 9.070312 20.703125 9.125 L 5.65625 14.421875 C 5.519531 14.472656 5.382812 14.460938 5.25 14.390625 C 5.101562 14.328125 5.007812 14.226562 4.96875 14.09375 L 4.203125 11.90625 C 4.148438 11.757812 4.160156 11.617188 4.234375 11.484375 C 4.296875 11.347656 4.394531 11.253906 4.53125 11.203125 L 14.53125 7.6875 L 10.796875 6.8125 C 10.648438 6.789062 10.503906 6.726562 10.359375 6.625 C 10.234375 6.488281 10.144531 6.347656 10.09375 6.203125 L 9.734375 5.171875 C 9.679688 5.035156 9.664062 4.878906 9.6875 4.703125 C 9.726562 4.523438 9.796875 4.367188 9.890625 4.234375 L 12.265625 1.21875 L 2.25 4.75 C 2.113281 4.800781 1.976562 4.796875 1.84375 4.734375 C 1.707031 4.671875 1.613281 4.570312 1.5625 4.4375 L 0.796875 2.25 C 0.742188 2.101562 0.753906 1.96875 0.828125 1.84375 C 0.890625 1.695312 0.988281 1.597656 1.125 1.546875 L 16.171875 -3.75 C 16.304688 -3.800781 16.453125 -3.785156 16.609375 -3.703125 C 16.734375 -3.660156 16.820312 -3.566406 16.875 -3.421875 L 17.640625 -1.234375 L 17.671875 -1.0625 C 17.679688 -0.976562 17.671875 -0.882812 17.640625 -0.78125 C 17.609375 -0.613281 17.550781 -0.46875 17.46875 -0.34375 L 13.328125 4.484375 L 19.578125 5.65625 C 19.722656 5.6875 19.863281 5.769531 20 5.90625 L 20.15625 6.03125 C 20.207031 6.09375 20.25 6.160156 20.28125 6.234375 Z M 21.046875 8.421875 "/></g></g></g><g fill="#403029" fill-opacity="1"><g transform="translate(339.101947, 141.580162)"><g><path d="M 18.796875 7.609375 C 18.828125 7.742188 18.804688 7.890625 18.734375 8.046875 C 18.660156 8.210938 18.5625 8.332031 18.4375 8.40625 L 10.375 13.59375 C 10.25 13.664062 10.085938 13.738281 9.890625 13.8125 C 9.691406 13.894531 9.523438 13.953125 9.390625 13.984375 L 3.421875 15.109375 C 3.285156 15.140625 3.148438 15.109375 3.015625 15.015625 C 2.890625 14.929688 2.8125 14.816406 2.78125 14.671875 L 2.34375 12.375 C 2.320312 12.226562 2.351562 12.085938 2.4375 11.953125 C 2.53125 11.828125 2.644531 11.75 2.78125 11.71875 L 5.59375 11.1875 L 4.328125 4.5 L 1.515625 5.03125 C 1.378906 5.0625 1.242188 5.035156 1.109375 4.953125 C 0.984375 4.867188 0.90625 4.757812 0.875 4.625 L 0.453125 2.34375 C 0.421875 2.195312 0.445312 2.0625 0.53125 1.9375 C 0.625 1.8125 0.738281 1.734375 0.875 1.703125 L 6.84375 0.578125 C 6.976562 0.546875 7.15625 0.53125 7.375 0.53125 C 7.59375 0.539062 7.765625 0.554688 7.890625 0.578125 L 17.296875 2.40625 C 17.441406 2.445312 17.578125 2.523438 17.703125 2.640625 C 17.828125 2.753906 17.90625 2.882812 17.9375 3.03125 Z M 7.6875 4 L 8.90625 10.453125 L 15.125 6.484375 L 14.921875 5.40625 Z M 7.6875 4 "/></g></g></g><g fill="#403029" fill-opacity="1"><g transform="translate(93.371107, 336.937465)"><g><path d="M 11.015625 -12.8125 C 11.140625 -13.019531 11.296875 -13.0625 11.484375 -12.9375 L 21.34375 -6.875 C 21.550781 -6.738281 21.59375 -6.566406 21.46875 -6.359375 L 20.84375 -5.359375 C 20.726562 -5.160156 20.566406 -5.128906 20.359375 -5.265625 L 11.796875 -10.53125 L 8.8125 -5.6875 L 16.65625 -0.859375 C 16.726562 -0.816406 16.773438 -0.738281 16.796875 -0.625 C 16.828125 -0.519531 16.820312 -0.4375 16.78125 -0.375 L 16.15625 0.640625 C 16.101562 0.722656 16.023438 0.769531 15.921875 0.78125 C 15.816406 0.800781 15.726562 0.789062 15.65625 0.75 L 7.8125 -4.078125 L 4.03125 2.078125 C 3.90625 2.273438 3.742188 2.3125 3.546875 2.1875 L 2.546875 1.578125 C 2.359375 1.453125 2.328125 1.289062 2.453125 1.09375 Z M 11.015625 -12.8125 "/></g></g></g><g fill="#403029" fill-opacity="1"><g transform="translate(115.761515, 349.972993)"><g><path d="M 3.5 -2.453125 L 8.59375 -14.46875 C 8.632812 -14.5625 8.703125 -14.625 8.796875 -14.65625 C 8.890625 -14.695312 8.976562 -14.703125 9.0625 -14.671875 L 10.15625 -14.203125 C 10.375 -14.109375 10.4375 -13.953125 10.34375 -13.734375 L 5.25 -1.71875 C 5.0625 -1.269531 5.054688 -0.820312 5.234375 -0.375 C 5.410156 0.0625 5.71875 0.375 6.15625 0.5625 L 11.25 2.71875 C 11.695312 2.914062 12.144531 2.921875 12.59375 2.734375 C 13.039062 2.554688 13.359375 2.242188 13.546875 1.796875 L 18.640625 -10.21875 C 18.734375 -10.4375 18.882812 -10.5 19.09375 -10.40625 L 20.1875 -9.953125 C 20.40625 -9.859375 20.46875 -9.703125 20.375 -9.484375 L 15.28125 2.53125 C 15.082031 3 14.804688 3.398438 14.453125 3.734375 C 14.109375 4.066406 13.71875 4.316406 13.28125 4.484375 C 12.84375 4.648438 12.382812 4.734375 11.90625 4.734375 C 11.4375 4.742188 10.972656 4.648438 10.515625 4.453125 L 5.421875 2.296875 C 4.960938 2.097656 4.566406 1.828125 4.234375 1.484375 C 3.910156 1.140625 3.660156 0.753906 3.484375 0.328125 C 3.304688 -0.0976562 3.210938 -0.550781 3.203125 -1.03125 C 3.203125 -1.507812 3.300781 -1.984375 3.5 -2.453125 Z M 3.5 -2.453125 "/></g></g></g><g fill="#403029" fill-opacity="1"><g transform="translate(139.85912, 359.489401)"><g><path d="M 7.390625 -15.703125 L 8.546875 -15.40625 C 8.765625 -15.351562 8.84375 -15.210938 8.78125 -14.984375 L 5.125 -0.640625 L 14.546875 1.765625 C 14.648438 1.796875 14.71875 1.851562 14.75 1.9375 C 14.789062 2.019531 14.800781 2.101562 14.78125 2.1875 L 14.484375 3.359375 C 14.429688 3.578125 14.296875 3.65625 14.078125 3.59375 L 3.171875 0.8125 C 3.097656 0.789062 3.03125 0.738281 2.96875 0.65625 C 2.914062 0.570312 2.898438 0.488281 2.921875 0.40625 L 6.96875 -15.4375 C 7 -15.53125 7.054688 -15.601562 7.140625 -15.65625 C 7.234375 -15.707031 7.316406 -15.722656 7.390625 -15.703125 Z M 7.390625 -15.703125 "/></g></g></g><g fill="#403029" fill-opacity="1"><g transform="translate(165.11466, 365.269786)"><g><path d="M 4.953125 -16.640625 L 6.140625 -16.53125 C 6.359375 -16.507812 6.453125 -16.378906 6.421875 -16.140625 L 4.96875 -1.40625 L 14.640625 -0.4375 C 14.742188 -0.425781 14.820312 -0.378906 14.875 -0.296875 C 14.9375 -0.222656 14.960938 -0.148438 14.953125 -0.078125 L 14.828125 1.125 C 14.804688 1.351562 14.679688 1.457031 14.453125 1.4375 L 3.265625 0.328125 C 3.179688 0.316406 3.101562 0.273438 3.03125 0.203125 C 2.96875 0.128906 2.941406 0.046875 2.953125 -0.046875 L 4.5625 -16.3125 C 4.570312 -16.414062 4.617188 -16.5 4.703125 -16.5625 C 4.785156 -16.625 4.867188 -16.648438 4.953125 -16.640625 Z M 4.953125 -16.640625 "/></g></g></g><g fill="#403029" fill-opacity="1"><g transform="translate(190.952598, 367.18243)"><g><path d="M 2.078125 -3.75 L 2.015625 -4.890625 C 2.015625 -4.972656 2.046875 -5.050781 2.109375 -5.125 C 2.179688 -5.207031 2.257812 -5.253906 2.34375 -5.265625 L 3.53125 -5.328125 C 3.632812 -5.328125 3.722656 -5.289062 3.796875 -5.21875 C 3.867188 -5.144531 3.90625 -5.066406 3.90625 -4.984375 L 3.96875 -3.84375 C 3.988281 -3.363281 4.175781 -2.960938 4.53125 -2.640625 C 4.894531 -2.316406 5.3125 -2.171875 5.78125 -2.203125 L 11.3125 -2.484375 C 11.800781 -2.515625 12.203125 -2.707031 12.515625 -3.0625 C 12.835938 -3.414062 12.988281 -3.832031 12.96875 -4.3125 L 12.84375 -6.515625 C 12.820312 -6.992188 12.632812 -7.394531 12.28125 -7.71875 C 11.925781 -8.039062 11.503906 -8.1875 11.015625 -8.15625 L 5.484375 -7.875 C 4.992188 -7.84375 4.523438 -7.910156 4.078125 -8.078125 C 3.628906 -8.253906 3.226562 -8.492188 2.875 -8.796875 C 2.53125 -9.097656 2.25 -9.46875 2.03125 -9.90625 C 1.820312 -10.34375 1.707031 -10.8125 1.6875 -11.3125 L 1.5625 -13.53125 C 1.539062 -14.019531 1.609375 -14.488281 1.765625 -14.9375 C 1.929688 -15.382812 2.171875 -15.78125 2.484375 -16.125 C 2.804688 -16.476562 3.179688 -16.757812 3.609375 -16.96875 C 4.035156 -17.1875 4.492188 -17.3125 4.984375 -17.34375 L 10.515625 -17.625 C 11.015625 -17.65625 11.488281 -17.582031 11.9375 -17.40625 C 12.382812 -17.238281 12.78125 -17 13.125 -16.6875 C 13.476562 -16.375 13.765625 -16 13.984375 -15.5625 C 14.203125 -15.132812 14.320312 -14.675781 14.34375 -14.1875 L 14.40625 -13.03125 C 14.414062 -12.800781 14.300781 -12.679688 14.0625 -12.671875 L 12.875 -12.609375 C 12.644531 -12.597656 12.523438 -12.707031 12.515625 -12.9375 L 12.453125 -14.09375 C 12.429688 -14.570312 12.238281 -14.972656 11.875 -15.296875 C 11.519531 -15.617188 11.097656 -15.765625 10.609375 -15.734375 L 5.078125 -15.453125 C 4.609375 -15.421875 4.210938 -15.226562 3.890625 -14.875 C 3.578125 -14.519531 3.429688 -14.101562 3.453125 -13.625 L 3.578125 -11.40625 C 3.597656 -10.925781 3.785156 -10.523438 4.140625 -10.203125 C 4.492188 -9.878906 4.90625 -9.734375 5.375 -9.765625 L 10.90625 -10.046875 C 11.40625 -10.078125 11.878906 -10.003906 12.328125 -9.828125 C 12.773438 -9.660156 13.175781 -9.421875 13.53125 -9.109375 C 13.882812 -8.796875 14.164062 -8.421875 14.375 -7.984375 C 14.59375 -7.554688 14.710938 -7.097656 14.734375 -6.609375 L 14.859375 -4.40625 C 14.878906 -3.90625 14.804688 -3.425781 14.640625 -2.96875 C 14.472656 -2.519531 14.226562 -2.125 13.90625 -1.78125 C 13.59375 -1.445312 13.222656 -1.171875 12.796875 -0.953125 C 12.367188 -0.742188 11.90625 -0.625 11.40625 -0.59375 L 5.875 -0.3125 C 5.382812 -0.28125 4.914062 -0.347656 4.46875 -0.515625 C 4.019531 -0.691406 3.617188 -0.929688 3.265625 -1.234375 C 2.921875 -1.535156 2.640625 -1.90625 2.421875 -2.34375 C 2.210938 -2.78125 2.097656 -3.25 2.078125 -3.75 Z M 2.078125 -3.75 "/></g></g></g><g fill="#403029" fill-opacity="1"><g transform="translate(216.78397, 365.183725)"><g><path d="M 7.5 -1.90625 L 4.5 -16.40625 L -0.46875 -15.375 C -0.707031 -15.320312 -0.847656 -15.410156 -0.890625 -15.640625 L -1.140625 -16.796875 C -1.179688 -17.035156 -1.082031 -17.179688 -0.84375 -17.234375 L 10.96875 -19.671875 C 11.195312 -19.722656 11.332031 -19.628906 11.375 -19.390625 L 11.625 -18.234375 C 11.664062 -18.003906 11.570312 -17.863281 11.34375 -17.8125 L 6.34375 -16.78125 L 9.34375 -2.28125 C 9.351562 -2.1875 9.332031 -2.097656 9.28125 -2.015625 C 9.226562 -1.929688 9.160156 -1.882812 9.078125 -1.875 L 7.90625 -1.625 C 7.675781 -1.582031 7.539062 -1.675781 7.5 -1.90625 Z M 7.5 -1.90625 "/></g></g></g><g fill="#403029" fill-opacity="1"><g transform="translate(242.020129, 359.319206)"><g><path d="M 4.375 -19.796875 C 4.46875 -19.828125 4.570312 -19.828125 4.6875 -19.796875 C 4.800781 -19.765625 4.882812 -19.71875 4.9375 -19.65625 L 11.1875 -12.75 C 11.238281 -12.675781 11.296875 -12.582031 11.359375 -12.46875 C 11.429688 -12.351562 11.488281 -12.253906 11.53125 -12.171875 L 13.96875 -5.546875 C 14.050781 -5.328125 13.988281 -5.175781 13.78125 -5.09375 L 12.671875 -4.6875 C 12.460938 -4.613281 12.316406 -4.6875 12.234375 -4.90625 L 10.640625 -9.203125 L 2.171875 -6.0625 L 3.765625 -1.765625 C 3.847656 -1.546875 3.78125 -1.394531 3.5625 -1.3125 L 2.453125 -0.90625 C 2.234375 -0.820312 2.082031 -0.890625 2 -1.109375 L -0.4375 -7.734375 C -0.476562 -7.816406 -0.507812 -7.925781 -0.53125 -8.0625 C -0.5625 -8.195312 -0.570312 -8.3125 -0.5625 -8.40625 L -0.3125 -17.71875 C -0.3125 -17.800781 -0.28125 -17.890625 -0.21875 -17.984375 C -0.15625 -18.078125 -0.0820312 -18.140625 0 -18.171875 Z M 10 -10.96875 L 9.796875 -11.53125 L 4.171875 -17.703125 L 1.53125 -16.734375 L 1.328125 -8.390625 L 1.53125 -7.828125 Z M 10 -10.96875 "/></g></g></g><g fill="#403029" fill-opacity="1"><g transform="translate(266.085902, 349.722566)"><g><path d="M 7.234375 -18.03125 C 7.347656 -17.832031 7.300781 -17.675781 7.09375 -17.5625 L 6.0625 -16.984375 C 5.863281 -16.867188 5.707031 -16.910156 5.59375 -17.109375 L 5.03125 -18.125 C 4.769531 -18.539062 4.414062 -18.816406 3.96875 -18.953125 C 3.519531 -19.085938 3.082031 -19.035156 2.65625 -18.796875 L -2.1875 -16.125 C -2.601562 -15.882812 -2.875 -15.535156 -3 -15.078125 C -3.132812 -14.617188 -3.085938 -14.179688 -2.859375 -13.765625 L 1.890625 -5.1875 C 2.117188 -4.769531 2.460938 -4.492188 2.921875 -4.359375 C 3.378906 -4.222656 3.816406 -4.273438 4.234375 -4.515625 L 9.078125 -7.1875 C 9.503906 -7.425781 9.78125 -7.765625 9.90625 -8.203125 C 10.039062 -8.640625 10.003906 -9.070312 9.796875 -9.5 L 9.21875 -10.546875 C 9.175781 -10.617188 9.160156 -10.703125 9.171875 -10.796875 C 9.191406 -10.898438 9.25 -10.976562 9.34375 -11.03125 L 10.375 -11.609375 C 10.46875 -11.660156 10.5625 -11.664062 10.65625 -11.625 C 10.75 -11.59375 10.816406 -11.539062 10.859375 -11.46875 L 11.4375 -10.421875 C 11.675781 -9.984375 11.8125 -9.53125 11.84375 -9.0625 C 11.875 -8.59375 11.828125 -8.132812 11.703125 -7.6875 C 11.578125 -7.25 11.367188 -6.835938 11.078125 -6.453125 C 10.796875 -6.078125 10.4375 -5.769531 10 -5.53125 L 5.15625 -2.859375 C 4.71875 -2.609375 4.257812 -2.460938 3.78125 -2.421875 C 3.300781 -2.378906 2.84375 -2.421875 2.40625 -2.546875 C 1.96875 -2.679688 1.554688 -2.894531 1.171875 -3.1875 C 0.796875 -3.476562 0.488281 -3.84375 0.25 -4.28125 L -4.5 -12.859375 C -4.738281 -13.285156 -4.878906 -13.738281 -4.921875 -14.21875 C -4.972656 -14.695312 -4.9375 -15.15625 -4.8125 -15.59375 C -4.6875 -16.039062 -4.476562 -16.453125 -4.1875 -16.828125 C -3.894531 -17.210938 -3.53125 -17.53125 -3.09375 -17.78125 L 1.75 -20.453125 C 2.1875 -20.691406 2.640625 -20.832031 3.109375 -20.875 C 3.585938 -20.914062 4.046875 -20.875 4.484375 -20.75 C 4.921875 -20.625 5.332031 -20.414062 5.71875 -20.125 C 6.101562 -19.84375 6.421875 -19.484375 6.671875 -19.046875 Z M 7.234375 -18.03125 "/></g></g></g><g fill="#403029" fill-opacity="1"><g transform="translate(288.432754, 336.612498)"><g><path d="M 9.859375 -7.984375 L 2.1875 -11.25 L -1.21875 -8.625 L 3.203125 -2.890625 C 3.335938 -2.710938 3.3125 -2.550781 3.125 -2.40625 L 2.171875 -1.671875 C 2.117188 -1.628906 2.039062 -1.609375 1.9375 -1.609375 C 1.832031 -1.617188 1.753906 -1.660156 1.703125 -1.734375 L -8.28125 -14.6875 C -8.34375 -14.769531 -8.363281 -14.859375 -8.34375 -14.953125 C -8.320312 -15.054688 -8.285156 -15.128906 -8.234375 -15.171875 L -7.28125 -15.90625 C -7.09375 -16.050781 -6.925781 -16.03125 -6.78125 -15.84375 L -2.375 -10.125 L 1.03125 -12.75 L -0.171875 -21.015625 C -0.179688 -21.109375 -0.164062 -21.207031 -0.125 -21.3125 C -0.0820312 -21.414062 -0.0195312 -21.5 0.0625 -21.5625 L 1.234375 -22.46875 C 1.304688 -22.519531 1.375 -22.535156 1.4375 -22.515625 C 1.5 -22.492188 1.535156 -22.4375 1.546875 -22.34375 L 2.90625 -13 L 11.578125 -9.3125 C 11.796875 -9.21875 11.816406 -9.101562 11.640625 -8.96875 L 10.46875 -8.0625 C 10.289062 -7.925781 10.085938 -7.898438 9.859375 -7.984375 Z M 9.859375 -7.984375 "/></g></g></g><g fill="#403029" fill-opacity="1"><g transform="translate(308.548798, 320.285092)"><g/></g></g><g fill="#403029" fill-opacity="1"><g transform="translate(325.967324, 301.14102)"><g><path d="M 1.015625 -2.0625 L -12.359375 -11.453125 C -12.429688 -11.492188 -12.476562 -11.566406 -12.5 -11.671875 C -12.519531 -11.773438 -12.503906 -11.863281 -12.453125 -11.9375 L -7.390625 -19.140625 C -7.097656 -19.554688 -6.75 -19.882812 -6.34375 -20.125 C -5.9375 -20.375 -5.5 -20.539062 -5.03125 -20.625 C -4.570312 -20.707031 -4.109375 -20.703125 -3.640625 -20.609375 C -3.171875 -20.515625 -2.734375 -20.328125 -2.328125 -20.046875 L 5.6875 -14.40625 C 6.09375 -14.125 6.421875 -13.773438 6.671875 -13.359375 C 6.929688 -12.953125 7.097656 -12.515625 7.171875 -12.046875 C 7.242188 -11.585938 7.234375 -11.125 7.140625 -10.65625 C 7.046875 -10.195312 6.851562 -9.757812 6.5625 -9.34375 L 1.5 -2.140625 C 1.445312 -2.066406 1.367188 -2.019531 1.265625 -2 C 1.171875 -1.976562 1.085938 -2 1.015625 -2.0625 Z M 0.84375 -4.5 L 5.015625 -10.4375 C 5.296875 -10.84375 5.394531 -11.28125 5.3125 -11.75 C 5.226562 -12.21875 4.988281 -12.585938 4.59375 -12.859375 L -3.421875 -18.5 C -3.816406 -18.769531 -4.25 -18.863281 -4.71875 -18.78125 C -5.1875 -18.695312 -5.5625 -18.453125 -5.84375 -18.046875 L -10.015625 -12.109375 Z M 0.84375 -4.5 "/></g></g></g><g fill="#403029" fill-opacity="1"><g transform="translate(340.314218, 279.566576)"><g><path d="M 0.875 -2.53125 L -13.75 -9.796875 C -13.96875 -9.898438 -14.03125 -10.054688 -13.9375 -10.265625 L -8.78125 -20.640625 C -8.675781 -20.847656 -8.515625 -20.898438 -8.296875 -20.796875 L -7.234375 -20.265625 C -7.035156 -20.171875 -6.988281 -20.019531 -7.09375 -19.8125 L -11.5625 -10.796875 L -6.46875 -8.265625 L -2.59375 -16.078125 C -2.5625 -16.148438 -2.488281 -16.203125 -2.375 -16.234375 C -2.269531 -16.265625 -2.1875 -16.265625 -2.125 -16.234375 L -1.046875 -15.703125 C -0.960938 -15.660156 -0.90625 -15.585938 -0.875 -15.484375 C -0.851562 -15.390625 -0.859375 -15.304688 -0.890625 -15.234375 L -4.765625 -7.421875 L 0.328125 -4.890625 L 4.796875 -13.90625 C 4.847656 -14 4.914062 -14.054688 5 -14.078125 C 5.09375 -14.109375 5.175781 -14.101562 5.25 -14.0625 L 6.328125 -13.53125 C 6.535156 -13.425781 6.585938 -13.269531 6.484375 -13.0625 L 1.328125 -2.6875 C 1.234375 -2.476562 1.082031 -2.425781 0.875 -2.53125 Z M 0.875 -2.53125 "/></g></g></g><g fill="#403029" fill-opacity="1"><g transform="translate(351.244514, 256.105262)"><g><path d="M 1.46875 -5.671875 L -7.78125 -5.03125 C -7.882812 -5.03125 -8.003906 -5.03125 -8.140625 -5.03125 C -8.273438 -5.039062 -8.382812 -5.0625 -8.46875 -5.09375 L -15.203125 -7.25 C -15.304688 -7.28125 -15.375 -7.335938 -15.40625 -7.421875 C -15.445312 -7.515625 -15.457031 -7.601562 -15.4375 -7.6875 L -15.078125 -8.8125 C -15.003906 -9.039062 -14.851562 -9.117188 -14.625 -9.046875 L -8.25 -7 C -8.15625 -6.96875 -8.039062 -6.941406 -7.90625 -6.921875 C -7.769531 -6.898438 -7.660156 -6.894531 -7.578125 -6.90625 L 0.421875 -7.484375 L 1.28125 -10.15625 L -4.890625 -15.265625 C -4.953125 -15.316406 -5.046875 -15.375 -5.171875 -15.4375 C -5.296875 -15.507812 -5.40625 -15.5625 -5.5 -15.59375 L -11.875 -17.640625 C -12.101562 -17.710938 -12.179688 -17.859375 -12.109375 -18.078125 L -11.75 -19.203125 C -11.675781 -19.429688 -11.523438 -19.507812 -11.296875 -19.4375 L -4.5625 -17.28125 C -4.476562 -17.25 -4.375 -17.203125 -4.25 -17.140625 C -4.132812 -17.078125 -4.035156 -17.015625 -3.953125 -16.953125 L 3.1875 -11.03125 C 3.257812 -10.96875 3.3125 -10.878906 3.34375 -10.765625 C 3.375 -10.648438 3.378906 -10.546875 3.359375 -10.453125 L 1.9375 -6.03125 C 1.90625 -5.9375 1.84375 -5.851562 1.75 -5.78125 C 1.65625 -5.71875 1.5625 -5.679688 1.46875 -5.671875 Z M 1.46875 -5.671875 "/></g></g></g><g clip-path="url(#6e832067d1)"><path fill="#403029" d="M 130.75 191.011719 L 160.085938 220.347656 L 157.046875 223.386719 L 124.6875 191.011719 L 157.058594 158.640625 L 160.097656 161.679688 Z M 199.554688 134.355469 L 203.597656 135.371094 L 179.308594 247.660156 L 175.265625 246.640625 Z M 221.804688 158.640625 L 254.179688 191.011719 L 221.804688 223.386719 L 218.765625 220.347656 L 248.101562 191.011719 L 218.765625 161.679688 Z M 221.804688 158.640625 " fill-opacity="1" fill-rule="nonzero"/></g></svg>